<?xml version="1.0" encoding="UTF-8"?>
<svg width="120px" height="120px" viewBox="0 0 120 120" version="1.1" xmlns="http://www.w3.org/2000/svg" xmlns:xlink="http://www.w3.org/1999/xlink">
    <title>favicon</title>
    <g id="favicon" stroke="none" stroke-width="1" fill="none" fill-rule="evenodd">
        <path d="M48.7050781,102.677734 C50.0722656,102.677734 51.2278646,102.222005 52.171875,101.310547 L52.171875,101.310547 L88.4023438,65.8125 C88.9882812,65.2916667 89.4033203,64.7301432 89.6474609,64.1279297 C89.8916016,63.5257161 90.0136719,62.8665365 90.0136719,62.1503906 C90.0136719,61.4342448 89.8916016,60.7750651 89.6474609,60.1728516 C89.4033203,59.570638 88.9882812,59.0091146 88.4023438,58.4882812 L88.4023438,58.4882812 L52.171875,22.9902344 C51.2278646,22.078776 50.0722656,21.6230469 48.7050781,21.6230469 C47.7936198,21.6230469 46.9635417,21.8264974 46.2148438,22.2333984 C45.4661458,22.6402995 44.8720703,23.218099 44.4326172,23.9667969 C43.9931641,24.7154948 43.7734375,25.5455729 43.7734375,26.4570312 C43.7734375,27.7916667 44.2779948,28.9635417 45.2871094,29.9726562 L45.2871094,29.9726562 L78.2460938,62.1503906 L45.2871094,94.328125 C44.2779948,95.3372396 43.7734375,96.5091146 43.7734375,97.84375 C43.7734375,98.7226562 43.9931641,99.5445964 44.4326172,100.30957 C44.8720703,101.074544 45.4661458,101.660482 46.2148438,102.067383 C46.9635417,102.474284 47.7936198,102.677734 48.7050781,102.677734 Z" id="arrow" fill="#86868B" fill-rule="nonzero"></path>
    </g>
</svg>